<svg width="517" height="290" viewBox="0 0 517 290" fill="none" xmlns="http://www.w3.org/2000/svg">
<g clip-path="url(#clip0_1681_1268)">
<rect width="516" height="290" transform="translate(0.5)" fill="#F5E6FF"/>
<circle cx="547" cy="7" r="90" stroke="#151515" stroke-width="2" stroke-linecap="round" stroke-linejoin="round" stroke-dasharray="6 6"/>
<circle cx="488.5" cy="35.5" r="171.5" stroke="#151515" stroke-width="2" stroke-linecap="round" stroke-linejoin="round" stroke-dasharray="6 6"/>
<circle cx="434.5" cy="31.5" r="265.5" stroke="#151515" stroke-width="2" stroke-linecap="round" stroke-linejoin="round" stroke-dasharray="6 6"/>
<path d="M74.6426 29.4977C79.5595 115.106 145.64 215.753 222.238 254.299C248.661 267.596 272.884 271.766 293.079 268.01C287.928 275.868 281.593 282.308 274.248 287.216L274.128 287.296C250.628 302.922 216.823 302.908 178.355 283.55C139.974 264.235 104.232 229.327 77.5041 188.533C50.8913 147.914 33.2134 101.459 30.7603 58.748C28.2801 15.5663 41.8355 -15.541 65.7106 -30.8213C72.8403 -35.3844 80.8903 -38.536 89.7083 -40.1764C78.5761 -23.1937 72.9721 0.413257 74.6426 29.4977Z" fill="#8E44EC"/>
<path d="M274.248 287.216L274.128 287.296C250.628 302.922 216.823 302.908 178.355 283.55C139.974 264.235 104.232 229.327 77.5041 188.533C50.8913 147.914 33.2134 101.459 30.7603 58.748C28.2801 15.5663 41.8355 -15.541 65.7106 -30.8213C72.8403 -35.3844 80.8903 -38.536 89.7083 -40.1764C78.5761 -23.1937 72.9721 0.413256 74.6426 29.4977C79.5595 115.106 145.64 215.753 222.238 254.299C248.661 267.596 272.884 271.766 293.079 268.01C287.928 275.868 281.593 282.308 274.248 287.216ZM274.248 287.216L280.013 283.373" stroke="#151515" stroke-width="2" stroke-linejoin="round"/>
<path d="M69.8083 193.573C98.3427 237.124 136.499 274.39 177.474 295.01C218.541 315.676 254.63 315.691 279.718 299.009L279.846 298.924C287.687 293.684 294.45 286.809 299.949 278.42L293.078 268.009C287.927 275.867 281.593 282.307 274.248 287.215L274.128 287.295C250.627 302.921 216.823 302.907 178.355 283.549C139.973 264.234 104.232 229.327 77.5035 188.532C50.8907 147.913 33.2129 101.459 30.7597 58.7471L19.9062 55.0195C22.5252 100.617 41.3974 150.21 69.8083 193.573Z" fill="#151515" stroke="#151515" stroke-width="2" stroke-linejoin="round"/>
<path d="M160.549 -26.4648L158.465 -35.9499C82.0218 -74.4183 14.7493 -34.7659 19.9063 55.0218L30.7597 58.7493C25.9291 -25.3557 88.9439 -62.4985 160.549 -26.4648Z" fill="#151515" stroke="#151515" stroke-width="2" stroke-linejoin="round"/>
<path d="M530.223 283.094L485.158 309.532C485.158 338.394 478.274 361.425 466.298 377.59C460.757 385.069 454.126 391.079 446.582 395.516L452.502 392.043L491.524 369.15C515.444 355.154 530.223 325.383 530.223 283.094Z" fill="#B382F2"/>
<path d="M485.158 309.532L530.223 283.094C530.223 325.383 515.444 355.154 491.524 369.15L452.502 392.043L446.459 395.588C454.054 391.144 460.727 385.11 466.298 377.59C478.274 361.425 485.158 338.394 485.158 309.532Z" stroke="#151515" stroke-width="2" stroke-linejoin="round"/>
<path d="M485.159 309.534C485.159 224.581 425.517 121.278 351.945 78.8014L397.01 52.3633C470.582 94.84 530.224 198.142 530.224 283.096L485.159 309.534Z" fill="#8E44EC" stroke="#151515" stroke-width="2" stroke-linejoin="round"/>
<path d="M256.317 123.184C256.317 213.877 319.988 324.159 398.531 369.506C425.626 385.149 450.95 391.021 472.502 388.279C466.586 396.264 459.507 402.68 451.453 407.417L451.322 407.494C425.56 422.569 389.866 420.504 350.421 397.73C311.065 375.008 275.442 335.981 249.693 291.284C224.056 246.781 208.207 196.656 208.207 151.408L256.317 123.184Z" fill="#8E44EC"/>
<path d="M451.322 407.494C425.56 422.569 389.866 420.504 350.421 397.73C311.065 375.008 275.442 335.981 249.693 291.284C224.056 246.781 208.207 196.656 208.207 151.408L256.317 123.184C256.317 213.877 319.988 324.159 398.531 369.506C425.626 385.149 450.95 391.021 472.502 388.279C466.554 396.308 459.43 402.75 451.322 407.494ZM451.322 407.494L457.773 403.709" stroke="#151515" stroke-width="2" stroke-linejoin="round"/>
<path d="M540.746 287.398L492.636 315.623C492.636 346.435 485.287 371.022 472.502 388.279C466.586 396.264 459.507 402.68 451.454 407.417L457.773 403.709L499.432 379.27C524.968 364.327 540.746 332.545 540.746 287.398Z" fill="#B382F2"/>
<path d="M492.636 315.623L540.746 287.398C540.746 332.545 524.968 364.327 499.432 379.27L457.773 403.709L451.322 407.494C459.43 402.75 466.554 396.308 472.502 388.279C485.287 371.022 492.636 346.435 492.636 315.623Z" stroke="#151515" stroke-width="2" stroke-linejoin="round"/>
<path d="M492.634 315.621C492.634 224.928 428.963 114.645 350.42 69.2987L398.53 41.0742C477.073 86.4209 540.744 196.703 540.744 287.397L492.634 315.621Z" fill="#B382F2" stroke="#151515" stroke-width="2" stroke-linejoin="round"/>
<path d="M398.531 41.0755L350.421 69.2999C323.327 53.657 298.002 47.7848 276.451 50.5268C263.666 67.7839 256.317 92.3709 256.317 123.183L208.207 151.407C208.207 105.661 224.407 73.6363 250.544 58.9496L298.654 30.7251C324.333 16.2951 359.606 18.6021 398.531 41.0755Z" fill="#151515"/>
<path d="M250.544 58.9496C224.407 73.6363 208.207 105.661 208.207 151.407L256.317 123.183C256.317 92.3709 263.666 67.7839 276.451 50.5268M250.544 58.9496L298.654 30.7251C324.333 16.2951 359.606 18.6021 398.531 41.0755L350.421 69.3C323.327 53.657 298.002 47.7848 276.451 50.5268M250.544 58.9496C258.349 54.5638 267.04 51.7241 276.451 50.5268" stroke="#151515" stroke-width="2" stroke-linejoin="round"/>
<path d="M263.795 129.273C263.795 214.226 323.437 317.528 397.009 360.005C422.388 374.658 446.11 380.159 466.298 377.59C460.757 385.07 454.126 391.08 446.582 395.517L446.459 395.589C422.327 409.71 388.892 407.775 351.944 386.443C315.078 365.159 281.71 328.602 257.591 286.734C233.576 245.047 218.73 198.095 218.73 155.711C218.73 112.859 233.905 82.8618 258.388 69.1045C265.699 64.9963 273.84 62.3363 282.655 61.2148C270.679 77.3798 263.795 100.411 263.795 129.273Z" fill="#8E44EC"/>
<path d="M446.582 395.517L446.459 395.589C422.327 409.71 388.892 407.775 351.944 386.443C315.078 365.159 281.71 328.602 257.591 286.734C233.576 245.047 218.73 198.095 218.73 155.711C218.73 112.859 233.905 82.8618 258.388 69.1045C265.699 64.9963 273.84 62.3363 282.655 61.2148C270.679 77.3798 263.795 100.411 263.795 129.273C263.795 214.226 323.437 317.528 397.009 360.005C422.388 374.658 446.11 380.159 466.298 377.59C460.757 385.07 454.126 391.08 446.582 395.517ZM446.582 395.517L452.502 392.044" stroke="#151515" stroke-width="2" stroke-linejoin="round"/>
<path d="M492.636 315.623C492.636 224.93 428.965 114.647 350.422 69.3008L351.944 78.8007C425.516 121.277 485.158 224.58 485.158 309.533L492.636 315.623Z" fill="#151515" stroke="#151515" stroke-width="2" stroke-linejoin="round"/>
<path d="M249.695 291.282C275.444 335.979 311.067 375.006 350.423 397.729C389.868 420.502 425.562 422.567 451.324 407.492L451.455 407.415C459.509 402.678 466.588 396.262 472.504 388.277L466.3 377.589C460.759 385.069 454.127 391.079 446.583 395.516L446.46 395.588C422.329 409.709 388.894 407.774 351.946 386.442C315.08 365.158 281.712 328.601 257.593 286.733C233.578 245.046 218.732 198.094 218.732 155.71L208.209 151.406C208.209 196.655 224.058 246.779 249.695 291.282Z" fill="#151515" stroke="#151515" stroke-width="2" stroke-linejoin="round"/>
<path d="M351.946 78.8L350.423 69.3001C274.64 23.8891 208.209 63.2455 208.209 151.408L218.732 155.711C218.732 72.2495 283.169 39.0919 351.946 78.8Z" fill="#151515" stroke="#151515" stroke-width="2" stroke-linejoin="round"/>
<g clip-path="url(#clip1_1681_1268)">
<path opacity="0.5" d="M444.613 165.352C437.421 159.369 432.81 147.035 434.314 137.802C435.817 128.569 442.865 125.934 450.056 131.917C457.247 137.899 461.858 150.234 460.355 159.466C458.852 168.699 451.804 171.334 444.613 165.352Z" fill="#151515"/>
<ellipse cx="472.64" cy="139.174" rx="31.9958" ry="31.9958" transform="rotate(69.5024 472.64 139.174)" fill="#59B5F8" stroke="#151515" stroke-width="2"/>
<path d="M442.671 150.378C448.859 166.93 467.293 175.332 483.845 169.144C484.725 168.815 485.583 168.452 486.416 168.055C473.223 171.478 458.45 162.341 452.591 146.67C446.732 130.998 451.889 114.411 464.092 108.34C463.203 108.587 462.318 108.875 461.437 109.204C444.885 115.392 436.483 133.826 442.671 150.378Z" fill="#151515"/>
<path d="M496.328 117.653C498.751 120.664 500.778 124.18 502.246 128.107C503.714 132.033 504.49 136.017 504.638 139.879C504.726 135.929 504.079 131.897 502.611 127.97C501.143 124.044 498.986 120.576 496.328 117.653Z" fill="#151515"/>
<path d="M442.671 150.378C448.859 166.93 467.293 175.332 483.845 169.144C484.725 168.815 485.583 168.452 486.416 168.055C473.223 171.478 458.45 162.341 452.591 146.67C446.732 130.998 451.889 114.411 464.092 108.34C463.203 108.587 462.318 108.875 461.437 109.204C444.885 115.392 436.483 133.826 442.671 150.378Z" stroke="#151515" stroke-width="2"/>
<path d="M496.328 117.653C498.751 120.664 500.778 124.18 502.246 128.107C503.714 132.033 504.49 136.017 504.638 139.879C504.726 135.929 504.079 131.897 502.611 127.97C501.143 124.044 498.986 120.576 496.328 117.653Z" stroke="#151515" stroke-width="2"/>
</g>
<path opacity="0.5" d="M134.217 213.949C128.44 217.25 119.074 217.25 113.297 213.949C107.521 210.648 107.521 205.296 113.297 201.995C119.074 198.694 128.44 198.694 134.217 201.995C139.993 205.296 139.993 210.648 134.217 213.949Z" fill="#151515"/>
<circle cx="123.757" cy="167.757" r="21.7572" fill="#F97289" stroke="#151515" stroke-width="2"/>
<mask id="path-28-inside-1_1681_1268" fill="white">
<path fill-rule="evenodd" clip-rule="evenodd" d="M123.757 190.514C136.326 190.514 146.514 180.326 146.514 167.757C146.514 167.089 146.485 166.427 146.429 165.773C145.424 175.415 135.657 182.982 123.757 182.982C111.857 182.982 102.091 175.415 101.085 165.773C101.029 166.427 101 167.089 101 167.757C101 180.326 111.189 190.514 123.757 190.514ZM115.321 146.615C117.93 145.752 120.776 145.277 123.757 145.277C126.738 145.277 129.585 145.752 132.194 146.615C129.585 145.573 126.738 145 123.757 145C120.776 145 117.93 145.573 115.321 146.615Z"/>
</mask>
<path fill-rule="evenodd" clip-rule="evenodd" d="M123.757 190.514C136.326 190.514 146.514 180.326 146.514 167.757C146.514 167.089 146.485 166.427 146.429 165.773C145.424 175.415 135.657 182.982 123.757 182.982C111.857 182.982 102.091 175.415 101.085 165.773C101.029 166.427 101 167.089 101 167.757C101 180.326 111.189 190.514 123.757 190.514ZM115.321 146.615C117.93 145.752 120.776 145.277 123.757 145.277C126.738 145.277 129.585 145.752 132.194 146.615C129.585 145.573 126.738 145 123.757 145C120.776 145 117.93 145.573 115.321 146.615Z" fill="#151515"/>
<path d="M146.429 165.773L148.422 165.601L144.44 165.566L146.429 165.773ZM101.085 165.773L103.074 165.566L99.0927 165.601L101.085 165.773ZM115.321 146.615L114.579 144.758L115.949 148.514L115.321 146.615ZM132.194 146.615L131.566 148.514L132.936 144.758L132.194 146.615ZM144.514 167.757C144.514 179.221 135.221 188.514 123.757 188.514V192.514C137.43 192.514 148.514 181.43 148.514 167.757H144.514ZM144.436 165.945C144.488 166.542 144.514 167.146 144.514 167.757H148.514C148.514 167.031 148.483 166.312 148.422 165.601L144.436 165.945ZM144.44 165.566C143.57 173.912 134.937 180.982 123.757 180.982V184.982C136.377 184.982 147.278 176.918 148.418 165.98L144.44 165.566ZM123.757 180.982C112.577 180.982 103.945 173.913 103.074 165.566L99.0961 165.981C100.236 176.918 111.137 184.982 123.757 184.982V180.982ZM103 167.757C103 167.146 103.026 166.542 103.078 165.945L99.0927 165.601C99.0313 166.312 99 167.031 99 167.757H103ZM123.757 188.514C112.293 188.514 103 179.221 103 167.757H99C99 181.43 110.084 192.514 123.757 192.514V188.514ZM115.949 148.514C118.354 147.718 120.989 147.277 123.757 147.277V143.277C120.564 143.277 117.505 143.786 114.692 144.716L115.949 148.514ZM123.757 147.277C126.526 147.277 129.161 147.718 131.566 148.514L132.822 144.716C130.009 143.786 126.95 143.277 123.757 143.277V147.277ZM123.757 147C126.48 147 129.075 147.523 131.452 148.472L132.936 144.758C130.095 143.623 126.996 143 123.757 143V147ZM116.063 148.472C118.439 147.523 121.035 147 123.757 147V143C120.518 143 117.42 143.623 114.579 144.758L116.063 148.472Z" fill="#151515" mask="url(#path-28-inside-1_1681_1268)"/>
</g>
<defs>
<clipPath id="clip0_1681_1268">
<rect width="516" height="290" fill="white" transform="translate(0.5)"/>
</clipPath>
<clipPath id="clip1_1681_1268">
<rect width="63.9919" height="70.8979" fill="white" transform="translate(491.408 98) rotate(69.5024)"/>
</clipPath>
</defs>
</svg>
